<?xml version="1.0" standalone="no"?>
<!DOCTYPE svg PUBLIC "-//W3C//DTD SVG 20010904//EN"
 "http://www.w3.org/TR/2001/REC-SVG-20010904/DTD/svg10.dtd">
<svg version="1.0" xmlns="http://www.w3.org/2000/svg"
 width="2152.000000pt" height="2265.000000pt" viewBox="0 0 2152.000000 2265.000000"
 preserveAspectRatio="xMidYMid meet">
<metadata>
Created by potrace 1.15, written by Peter Selinger 2001-2017
</metadata>
<g transform="translate(0.000000,2265.000000) scale(0.100000,-0.100000)"
fill="#000000" stroke="none">
<path d="M21173 22640 c-35 -15 -48 -44 -117 -266 -118 -383 -242 -856 -346
-1314 -44 -196 -104 -389 -392 -1260 -288 -871 -518 -1520 -853 -2405 -91
-242 -301 -798 -465 -1235 -376 -1001 -513 -1359 -702 -1830 -716 -1784 -1351
-3003 -2051 -3936 -278 -370 -515 -643 -818 -939 -330 -322 -570 -488 -814
-561 -75 -22 -110 -27 -210 -28 -106 0 -129 3 -193 26 -149 54 -263 144 -385
307 -245 324 -426 733 -607 1371 -341 1200 -531 2327 -860 5105 -102 861 -151
1171 -226 1432 -19 67 -66 109 -186 168 -98 48 -164 59 -188 30 -7 -9 -24
-128 -41 -297 -36 -363 -39 -430 -17 -455 14 -16 17 -68 22 -418 23 -1499 18
-2322 -25 -4455 -11 -547 -23 -1379 -28 -1848 -5 -469 -12 -856 -15 -859 -15
-15 -362 127 -536 219 -488 260 -945 605 -1938 1467 -1205 1046 -1654 1384
-2192 1655 l-166 83 111 44 c473 186 1017 547 1629 1081 1134 990 2195 2437
2731 3724 386 925 496 1731 329 2399 -40 160 -80 269 -159 430 -183 376 -454
679 -831 931 -940 628 -2255 552 -3829 -221 -1411 -693 -2826 -1855 -3954
-3245 -643 -792 -1035 -1491 -1206 -2145 -51 -196 -67 -303 -69 -465 -2 -214
9 -294 45 -334 37 -43 124 -81 153 -68 20 9 21 16 22 208 0 138 6 230 18 299
92 544 355 1070 944 1890 541 753 1230 1482 2041 2159 1178 983 2276 1611
3341 1910 375 105 637 145 1005 153 288 6 446 -7 670 -53 511 -107 968 -392
1211 -754 206 -309 295 -682 281 -1170 -11 -348 -65 -667 -183 -1066 -294
-1002 -1018 -2222 -1960 -3307 -191 -219 -723 -755 -925 -930 -770 -670 -1358
-1033 -1913 -1182 l-88 -24 6 22 c13 44 19 2987 7 3350 -16 470 -58 977 -92
1108 -20 79 -197 201 -294 203 -74 2 -75 -2 -106 -276 -39 -343 -46 -471 -27
-500 12 -19 17 -126 29 -618 24 -1006 16 -2322 -26 -4245 -30 -1378 -36 -1860
-38 -3015 -2 -1245 -2 -1264 43 -1470 34 -161 49 -199 93 -242 46 -44 105 -78
137 -78 27 0 55 47 85 145 50 160 55 223 65 701 5 249 11 483 14 520 4 38 11
254 16 479 6 226 17 635 25 910 16 546 40 1523 54 2173 5 227 12 416 15 419
11 12 272 -46 398 -87 153 -51 441 -192 613 -300 373 -234 839 -604 1701
-1351 829 -718 1141 -967 1549 -1235 356 -233 707 -417 1035 -539 l115 -43 6
-564 c7 -603 11 -666 64 -886 24 -102 29 -112 72 -155 103 -103 144 -96 186
31 54 163 76 398 77 803 0 113 3 308 7 433 5 200 8 226 22 222 33 -10 228 -35
286 -37 110 -4 279 13 370 38 110 29 259 59 341 68 34 4 85 19 115 34 l54 27
3 59 c4 84 -3 104 -45 121 -42 18 -175 43 -236 44 -63 1 -215 -16 -362 -41
-101 -16 -174 -22 -327 -22 -108 -1 -199 1 -202 4 -3 2 -1 157 4 344 56 2037
80 3299 89 4579 l6 939 43 -359 c276 -2300 581 -3695 1020 -4660 410 -902
1014 -1306 1641 -1098 395 131 766 458 1416 1249 597 726 1160 1679 1722 2915
388 853 670 1553 1245 3095 154 413 364 973 468 1245 104 272 218 574 254 670
36 96 65 171 65 166 1 -5 -24 -147 -54 -315 -419 -2355 -669 -4588 -765 -6841
-47 -1121 -47 -2462 0 -3505 111 -2417 461 -4641 1041 -6610 121 -411 146
-479 189 -524 84 -86 258 -172 314 -155 32 10 56 35 56 59 0 13 -23 116 -51
231 -332 1370 -587 2670 -758 3869 -308 2151 -397 4393 -276 6940 118 2480
466 5142 1056 8080 110 546 174 838 339 1544 175 749 227 983 295 1326 74 371
73 364 41 419 -63 107 -236 199 -313 166z"/>
</g>
</svg>
